REM DIRINDEX 1\2\5,1\2\6,1\2\7,1\2\8,1\3\9,1\3\10,1\3\11,1\4\12,1\4\13,1\4\14,1\4\15,1\4\16
REM DIRNAME folder01,folder02,folder03,folder04,folder05,folder06,folder07,folder08,folder09,folder10,folder11,folder12,folder13,folder14,folder15,folder16
TITLE ""
FILE "1200_2_sec01_0049_0066.mp3" MP3
  TRACK 01 AUDIO
    TITLE "0:"
    INDEX 01 00:00:00
  TRACK 02 AUDIO
    TITLE "10:cjc034_00101"
    INDEX 01 00:00:15
  TRACK 03 AUDIO
    TITLE "0:"
    INDEX 01 00:01:34
  TRACK 04 AUDIO
    TITLE "9:cjc034_00102"
    INDEX 01 00:01:52
  TRACK 05 AUDIO
    TITLE "0:"
    INDEX 01 00:02:61
  TRACK 06 AUDIO
    TITLE "10:cjc034_00103"
    INDEX 01 00:03:43
  TRACK 07 AUDIO
    TITLE "0:"
    INDEX 01 00:04:52
  TRACK 08 AUDIO
    TITLE "9:cjc034_00104"
    INDEX 01 00:04:58
  TRACK 09 AUDIO
    TITLE "0:"
    INDEX 01 00:05:73
  TRACK 10 AUDIO
    TITLE "10:cjc034_00105"
    INDEX 01 00:06:55
  TRACK 11 AUDIO
    TITLE "0:"
    INDEX 01 00:07:68
  TRACK 12 AUDIO
    TITLE "9:cjc034_00106"
    INDEX 01 00:07:70
  TRACK 13 AUDIO
    TITLE "0:"
    INDEX 01 00:08:73
  TRACK 14 AUDIO
    TITLE "10:cjc034_00107"
    INDEX 01 00:09:57
  TRACK 15 AUDIO
    TITLE "0:"
    INDEX 01 00:10:51
  TRACK 16 AUDIO
    TITLE "9:cjc034_00108"
    INDEX 01 00:10:53
  TRACK 17 AUDIO
    TITLE "0:"
    INDEX 01 00:11:64
  TRACK 18 AUDIO
    TITLE "10:cjc034_00109"
    INDEX 01 00:12:48
  TRACK 19 AUDIO
    TITLE "0:"
    INDEX 01 00:13:33
  TRACK 20 AUDIO
    TITLE "9:cjc034_00110"
    INDEX 01 00:13:43
  TRACK 21 AUDIO
    TITLE "0:"
    INDEX 01 00:14:49
  TRACK 22 AUDIO
    TITLE "10:cjc034_00111"
    INDEX 01 00:15:30
  TRACK 23 AUDIO
    TITLE "0:"
    INDEX 01 00:17:61
  TRACK 24 AUDIO
    TITLE "9:cjc034_00112"
    INDEX 01 00:17:69
  TRACK 25 AUDIO
    TITLE "0:"
    INDEX 01 00:19:07
  TRACK 26 AUDIO
    TITLE "10:cjc034_00113"
    INDEX 01 00:19:67
  TRACK 27 AUDIO
    TITLE "0:"
    INDEX 01 00:20:61
  TRACK 28 AUDIO
    TITLE "9:cjc034_00114"
    INDEX 01 00:20:69
  TRACK 29 AUDIO
    TITLE "0:"
    INDEX 01 00:21:70
  TRACK 30 AUDIO
    TITLE "10:cjc034_00115"
    INDEX 01 00:22:54
  TRACK 31 AUDIO
    TITLE "0:"
    INDEX 01 00:23:46
  TRACK 32 AUDIO
    TITLE "9:cjc034_00116"
    INDEX 01 00:23:53
  TRACK 33 AUDIO
    TITLE "0:"
    INDEX 01 00:24:53
  TRACK 34 AUDIO
    TITLE "10:cjc034_00117"
    INDEX 01 00:25:45
  TRACK 35 AUDIO
    TITLE "0:"
    INDEX 01 00:26:56
  TRACK 36 AUDIO
    TITLE "9:cjc034_00118"
    INDEX 01 00:26:60
  TRACK 37 AUDIO
    TITLE "0:"
    INDEX 01 00:28:02
  TRACK 38 AUDIO
    TITLE "10:cjc034_00119"
    INDEX 01 00:28:60
  TRACK 39 AUDIO
    TITLE "0:"
    INDEX 01 00:29:56
  TRACK 40 AUDIO
    TITLE "9:cjc034_00120"
    INDEX 01 00:29:62
  TRACK 41 AUDIO
    TITLE "0:"
    INDEX 01 00:31:04
  TRACK 42 AUDIO
    TITLE "10:cjc034_00121"
    INDEX 01 00:31:61
  TRACK 43 AUDIO
    TITLE "0:"
    INDEX 01 00:33:68
  TRACK 44 AUDIO
    TITLE "9:cjc034_00122"
    INDEX 01 00:33:71
  TRACK 45 AUDIO
    TITLE "0:"
    INDEX 01 00:35:10
  TRACK 46 AUDIO
    TITLE "10:cjc034_00123"
    INDEX 01 00:35:68
  TRACK 47 AUDIO
    TITLE "0:"
    INDEX 01 00:37:05
  TRACK 48 AUDIO
    TITLE "9:cjc034_00124"
    INDEX 01 00:37:18
  TRACK 49 AUDIO
    TITLE "0:"
    INDEX 01 00:38:16
  TRACK 50 AUDIO
    TITLE "10:cjc034_00125"
    INDEX 01 00:39:00
  TRACK 51 AUDIO
    TITLE "0:"
    INDEX 01 00:40:11
  TRACK 52 AUDIO
    TITLE "9:cjc034_00126"
    INDEX 01 00:40:15
  TRACK 53 AUDIO
    TITLE "0:"
    INDEX 01 00:41:38
  TRACK 54 AUDIO
    TITLE "10:cjc034_00127"
    INDEX 01 00:42:18
  TRACK 55 AUDIO
    TITLE "0:"
    INDEX 01 00:43:31
  TRACK 56 AUDIO
    TITLE "9:cjc034_00128"
    INDEX 01 00:43:33
  TRACK 57 AUDIO
    TITLE "0:"
    INDEX 01 00:44:52
  TRACK 58 AUDIO
    TITLE "10:cjc034_00129"
    INDEX 01 00:45:33
  TRACK 59 AUDIO
    TITLE "0:"
    INDEX 01 00:46:19
  TRACK 60 AUDIO
    TITLE "9:cjc034_00130"
    INDEX 01 00:46:25
  TRACK 61 AUDIO
    TITLE "0:"
    INDEX 01 00:47:56
  TRACK 62 AUDIO
    TITLE "10:cjc034_00131"
    INDEX 01 00:48:38
  TRACK 63 AUDIO
    TITLE "0:"
    INDEX 01 00:50:01
  TRACK 64 AUDIO
    TITLE "9:cjc034_00132"
    INDEX 01 00:50:07
  TRACK 65 AUDIO
    TITLE "0:"
    INDEX 01 00:51:28
  TRACK 66 AUDIO
    TITLE "10:cjc034_00133"
    INDEX 01 00:52:12
  TRACK 67 AUDIO
    TITLE "0:"
    INDEX 01 00:53:49
  TRACK 68 AUDIO
    TITLE "9:cjc034_00134"
    INDEX 01 00:53:51
  TRACK 69 AUDIO
    TITLE "0:"
    INDEX 01 00:54:74
  TRACK 70 AUDIO
    TITLE "10:cjc034_00135"
    INDEX 01 00:55:61
  TRACK 71 AUDIO
    TITLE "0:"
    INDEX 01 00:56:61
  TRACK 72 AUDIO
    TITLE "9:cjc034_00136"
    INDEX 01 00:56:69
  TRACK 73 AUDIO
    TITLE "0:"
    INDEX 01 00:58:17
